<svg xmlns="http://www.w3.org/2000/svg" viewBox="0 0 459.52 459.52"><path d="M451.52 221.76h-35.2c-4.21-44.47-43.673-77.107-88.143-72.897-38.644 3.658-69.239 34.254-72.897 72.897h-51.04c-4.21-44.47-43.673-77.107-88.143-72.897-38.644 3.658-69.239 34.254-72.897 72.897H8a8 8 0 000 16h35.2c4.21 44.47 43.673 77.107 88.143 72.897 38.644-3.658 69.239-34.254 72.897-72.897h51.12c4.21 44.47 43.673 77.107 88.143 72.897 38.644-3.658 69.239-34.254 72.897-72.897h35.12a8 8 0 000-16zm-327.84 72.96h-.16c-35.876-.088-64.888-29.243-64.8-65.12.088-35.876 29.243-64.888 65.12-64.8 35.814.088 64.8 29.146 64.8 64.96 0 35.876-29.084 64.96-64.96 64.96zm212.16 0h-.16c-35.876-.088-64.888-29.243-64.8-65.12.088-35.876 29.243-64.888 65.12-64.8 35.814.088 64.8 29.146 64.8 64.96 0 35.876-29.084 64.96-64.96 64.96z"/><path d="M132.56 178.96a8 8 0 000 16c14.536 0 26.32 11.784 26.32 26.32a8 8 0 0016 0c0-23.373-18.947-42.32-42.32-42.32zm211.68 0a8 8 0 000 16c14.536 0 26.32 11.784 26.32 26.32a8 8 0 0016 0c0-23.373-18.947-42.32-42.32-42.32z"/></svg>